<svg width="48" height="48" viewBox="0 0 635 635" fill="none" xmlns="http://www.w3.org/2000/svg">
    <g clip-path="url(#clip0_31_2)">
        <g clip-path="url(#clip1_31_2)">
            <path d="M149.632 280.473L185.062 346.414C186.906 349.846 182.597 353.236 179.658 350.682L98.11 278.97C96.0499 277.16 95.6338 274.094 97.1221 271.792L114.612 245.061C116.125 242.733 115.684 239.642 113.574 237.832L57.2049 189.461C55.0949 187.651 54.6536 184.56 56.1668 182.233L89.3353 131.474C93.1062 125.717 101.61 125.898 105.117 131.816L169.05 239.763C170.134 241.579 170.071 243.849 168.93 245.601L149.853 274.784C148.736 276.486 148.647 278.632 149.607 280.423L149.632 280.473Z" fill="url(#paint0_linear_31_2)"/>
            <path d="M603.679 207.139L530.205 80.8006C528.813 78.4132 525.501 78.0523 523.637 80.0788L495.221 110.782C494.47 111.615 493.385 112.087 492.271 112.114L408.305 113.447C407.081 113.447 405.912 112.947 405.105 112.003L378.164 80.3841C376.328 78.2466 372.932 78.5242 371.485 80.9394L302.631 197.006C299.987 201.476 301.462 207.222 305.943 209.831L373.962 255.942C381.142 260.8 379.806 271.71 371.68 274.735L207.895 335.42C201.215 337.891 193.729 335.087 190.333 328.813L165.425 282.814C164.367 280.815 164.478 278.4 165.731 276.54L187.161 244.199C188.469 242.228 188.524 239.729 187.355 237.703L116.887 117.111C113.019 110.504 103.556 110.254 99.3261 116.612L62.0605 172.882C60.3628 175.464 60.8359 181.775 63.1737 183.801L125.571 237.99C127.909 240.016 128.382 243.459 126.684 246.04L107.063 272.82C105.365 275.374 105.811 278.789 108.093 280.815L165.981 343.471C168.876 346.052 169.182 350.438 166.677 353.381C145.47 378.092 125.221 391.528 94.8453 421.394C56.3551 458.121 24.2104 500.984 1.30551 549.009C0.025288 551.73 2.00129 554.867 5.00703 554.867H60.4184C61.9213 554.867 63.285 554.034 64.0086 552.729C93.426 498.818 144.691 460.12 204.778 446.545C252.925 435.663 305.247 424.337 325.647 421.616C333.774 420.534 341.261 420.811 348.051 421.977C372.821 426.197 392.247 445.629 397.646 470.142L415.347 550.508C415.903 553.062 418.157 554.867 420.774 554.867H467.335C473.541 554.867 478.161 549.12 476.825 543.069C448.048 413.677 524.583 446.906 528.034 268.267C528.118 263.576 528.869 258.995 532.96 256.747L600.478 219.298C604.708 216.827 606.128 211.386 603.651 207.139H603.679Z" fill="#0047FF"/>
            <path fill-rule="evenodd" clip-rule="evenodd" d="M494.445 441.487C510.434 409.589 525.324 379.101 531.627 343.437C532.072 340.91 535.69 340.938 536.108 343.492C547.955 415.307 598.45 486.86 629.889 551.289C630.863 553.149 629.527 555.37 627.44 555.37H563.66C561.768 555.37 560.014 554.426 558.985 552.843L494.445 441.487Z" fill="#003AD0"/>
            <path d="M174.303 477.526C174.971 476.388 176.084 475.583 177.364 475.25L237.785 460.176C239.483 459.759 240.847 461.536 240.04 463.063L225.178 490.879C221.922 496.986 222.089 504.37 225.679 510.311L248.779 548.704C250.782 552.035 248.389 556.255 244.493 556.255H194.842C193.117 556.255 191.53 555.367 190.612 553.923L169.099 519.944C162.725 509.867 162.558 497.069 168.709 486.854L174.331 477.526H174.303Z" fill="#003AD0"/>
            <path d="M161.503 283.804L198.204 353.921C200.114 357.571 195.52 361.105 192.442 358.372L107.051 281.628C104.894 279.691 104.489 276.445 106.089 274.028L124.885 245.967C126.512 243.524 126.08 240.251 123.87 238.314L64.8314 186.533C62.6214 184.596 62.1903 181.323 63.8167 178.88L99.4639 125.596C103.516 119.553 112.504 119.84 116.144 126.137L182.497 240.988C183.623 242.919 183.53 245.318 182.304 247.158L161.801 277.793C160.601 279.58 160.483 281.847 161.477 283.751L161.503 283.804Z" fill="url(#paint1_linear_31_2)"/>
        </g>
    </g>
    <defs>
        <linearGradient id="paint0_linear_31_2" x1="85.5452" y1="143.118" x2="146.509" y2="300.366" gradientUnits="userSpaceOnUse">
            <stop offset="0.428132" stop-color="#FF7A00"/>
            <stop offset="1" stop-color="white"/>
        </linearGradient>
        <linearGradient id="paint1_linear_31_2" x1="95.3236" y1="137.862" x2="157.98" y2="304.797" gradientUnits="userSpaceOnUse">
            <stop stop-color="white"/>
            <stop offset="1" stop-color="#0147FF"/>
        </linearGradient>
        <clipPath id="clip0_31_2">
            <rect width="634.61" height="634.61" fill="white"/>
        </clipPath>
        <clipPath id="clip1_31_2">
            <rect width="635" height="477.481" fill="white" transform="translate(-6.10352e-05 78.7596)"/>
        </clipPath>
    </defs>
</svg>
