<svg viewBox="0 0 444 147" fill="none" xmlns="http://www.w3.org/2000/svg">
    <path d="M241.98 45.39H251.98V69.35C251.98 83.71 237.92 88.95 226.95 88.95C215.98 88.95 201.92 83.71 201.92 69.35V45.39H211.92V68.99C211.92 77.34 221 80.08 226.95 80.08C232.9 80.08 241.98 77.34 241.98 68.99V45.39ZM315 54.27H293.07V87.49H282.94V54.27H261.04V45.4H315V54.27ZM358.66 65.77L378.43 87.48H364.59L351.16 72.76L337.76 87.48H324.6L344.16 66.02L325.39 45.39H339.26L351.66 59.03L364.01 45.39H377.09L358.66 65.77ZM413.86 80.05C421.84 80.05 433.29 77.25 433.29 66.38C433.29 55.51 421.84 52.74 413.86 52.74C405.88 52.74 394.46 55.51 394.46 66.38C394.46 77.25 405.88 80.05 413.86 80.05ZM413.86 43.87C427.31 43.87 443.29 49.33 443.29 66.38C443.29 83.43 427.31 88.92 413.86 88.92C400.41 88.92 384.46 83.46 384.46 66.38C384.46 49.3 400.44 43.87 413.86 43.87Z" fill="currentColor"/>
    <path d="M227.31 98C239.68 98 247.49 100.99 249.05 101.71V111.88C243.77 109.46 235.68 107.57 228.73 107.57C217.09 107.57 213.09 109.93 213.09 112.74C213.09 115.55 216.84 116.09 222.54 116.6L235.2 117.74C248.26 118.91 254.95 122.05 254.95 130.98V131.04C254.95 144.07 239.88 146.59 227.96 146.59C216.04 146.59 207.38 142.79 202.73 140.31V129.4C210.31 134.18 218.62 137.02 228.02 137.02C236.79 137.02 244.2 135.46 244.2 131.52C244.2 128.59 240.26 127.6 233.47 127.01L222.06 125.99C209.46 124.85 202.33 121.33 202.33 113.16C202.33 103.77 211.75 98 227.31 98ZM275.05 132.2C275.05 136.86 278.54 138.21 282.77 138.21C286.15 138.21 288.87 137.34 289.87 136.92V145.29C289.36 145.53 285.13 146.73 281.61 146.73C272.9 146.73 264.84 143.59 264.84 132.14V119.64H258.45V111.27H264.84L265.41 103.59H275.06V111.27H288.46V119.64H275.06V132.2H275.05ZM321.23 109.57H321.29C331.14 109.57 338.66 112.83 340.79 118.15C341.39 119.64 341.58 121.35 341.58 124.82V145.03H331.93L331.36 140.52C328.86 143.9 321.82 146.59 313.62 146.59C305.42 146.59 297.21 143.81 297.21 135.44C297.21 130.15 300.45 127.22 304.45 125.67C310.44 123.31 320.54 123.07 331.36 123.07V122.74C331.36 119.78 327.5 117.93 320.18 117.93C313.71 117.93 307.24 119.39 301.62 121.88V112.97C306.13 111.09 314.51 109.59 321.23 109.59V109.57ZM331.37 129.93H329.18C325.07 129.93 313.37 129.93 309.68 132.29C308.91 132.8 308.03 133.7 308.03 135.04C308.03 137.91 312.12 138.42 314.19 138.42C324.52 138.42 331.36 134.32 331.36 129.93H331.37ZM359.29 128.22C359.29 136.8 368.68 138.23 374.59 138.23C380.5 138.23 385.94 136.82 391.39 135V144.27C385.71 145.94 379.73 146.75 373.99 146.75C361.87 146.75 349.07 143.16 349.07 128.24C349.07 113.32 361.87 109.73 373.99 109.73C379.78 109.73 385.68 110.54 391.39 112.18V121.45C386 119.63 380.41 118.25 374.59 118.25C368.77 118.25 359.29 119.66 359.29 128.21V128.22ZM439.26 111.21L424.08 124.87L442.3 145.02H430.24L417.41 130.85L411.17 136.44V145.02H400.95V102.03H411.17V124.48L425.96 111.21H439.27H439.26Z" fill="currentColor"/>
    <g clip-path="url(#clip0_1_402)">
        <path d="M45.9502 62.1006L56.8303 82.4016C57.3964 83.4584 56.0733 84.502 55.1708 83.7158L30.1284 61.638C29.4958 61.0807 29.368 60.1368 29.825 59.428L35.196 51.1984C35.6607 50.4818 35.5251 49.5303 34.8772 48.9731L17.567 34.0812C16.919 33.524 16.7835 32.5724 17.2482 31.8558L27.4338 16.229C28.5918 14.4567 31.2031 14.5122 32.28 16.3342L51.913 49.5675C52.2461 50.1264 52.2267 50.8253 51.8763 51.3647L46.0178 60.3494C45.675 60.8734 45.6477 61.5339 45.9424 62.0853L45.9502 62.1006Z" fill="url(#paint0_linear_1_402)"/>
        <path d="M185.382 39.5235L162.819 0.628335C162.392 -0.106665 161.375 -0.217778 160.802 0.406117L152.076 9.85857C151.845 10.115 151.512 10.2603 151.17 10.2688L125.385 10.679C125.009 10.679 124.65 10.5252 124.402 10.2346L116.129 0.500129C115.565 -0.157952 114.523 -0.0724769 114.078 0.67107L92.9341 36.404C92.1222 37.78 92.5752 39.5491 93.9511 40.3525L114.839 54.5483C117.044 56.0439 116.634 59.4027 114.138 60.3343L63.8418 79.0169C61.7906 79.7776 59.4916 78.9144 58.4489 76.9829L50.7998 62.8213C50.475 62.206 50.5092 61.4624 50.8938 60.8898L57.4746 50.9331C57.8763 50.3263 57.8934 49.5571 57.5345 48.9332L35.8947 11.8072C34.7067 9.7731 31.8009 9.69618 30.5018 11.6533L19.0581 28.9771C18.5367 29.7719 18.682 31.7148 19.3999 32.3387L38.5612 49.0215C39.2791 49.6454 39.4244 50.7052 38.9031 51.5L32.8778 59.7446C32.3564 60.5308 32.4932 61.5821 33.194 62.206L50.9707 81.4954C51.8596 82.2903 51.9536 83.6406 51.1844 84.5465C44.6721 92.1541 38.4537 96.2907 29.1259 105.485C17.306 116.793 7.4348 129.988 0.401024 144.774C0.00788431 145.611 0.614688 146.577 1.53771 146.577H18.5538C19.0153 146.577 19.4341 146.321 19.6563 145.919C28.69 129.322 44.4326 117.408 62.8846 113.229C77.67 109.878 93.7375 106.391 100.002 105.554C102.498 105.221 104.797 105.306 106.882 105.665C114.488 106.964 120.454 112.947 122.112 120.493L127.547 145.235C127.718 146.022 128.411 146.577 129.214 146.577H143.512C145.418 146.577 146.837 144.808 146.427 142.945C137.59 103.11 161.093 113.34 162.152 58.3429C162.178 56.8986 162.409 55.4884 163.665 54.7961L184.399 43.2669C185.698 42.5062 186.134 40.8311 185.373 39.5235H185.382Z" fill="currentColor"/>
        <path fill-rule="evenodd" clip-rule="evenodd" d="M151.837 111.671C156.748 101.851 161.32 92.4647 163.256 81.485C163.392 80.7072 164.503 80.7158 164.632 81.5021C168.27 103.611 183.776 125.64 193.43 145.476C193.73 146.048 193.319 146.732 192.678 146.732H173.093C172.511 146.732 171.973 146.441 171.657 145.954L151.837 111.671Z" fill="currentColor" opacity="0.6"/>
        <path d="M53.5262 122.767C53.7314 122.416 54.0732 122.168 54.4664 122.066L73.0208 117.425C73.5422 117.297 73.961 117.844 73.7131 118.314L69.1493 126.877C68.1493 128.758 68.2006 131.031 69.3031 132.86L76.3967 144.68C77.0121 145.705 76.2771 147.004 75.0806 147.004H59.8336C59.3037 147.004 58.8165 146.731 58.5345 146.287L51.9281 135.826C49.9709 132.723 49.9196 128.783 51.8084 125.638L53.5348 122.767H53.5262Z" fill="currentColor" opacity="0.6"/>
        <path d="M49.5955 63.1262L60.8659 84.7127C61.4523 85.8364 60.0417 86.9246 59.0964 86.0831L32.874 62.4563C32.2116 61.86 32.0872 60.8606 32.5785 60.1164L38.3507 51.4775C38.8502 50.7252 38.7178 49.7177 38.0391 49.1213L19.909 33.1798C19.2303 32.5833 19.0979 31.5758 19.5974 30.8235L30.5442 14.4192C31.7887 12.5588 34.5486 12.6473 35.6664 14.5858L56.0425 49.9444C56.3883 50.539 56.3599 51.2777 55.9832 51.8439L49.687 61.2756C49.3186 61.8256 49.2822 62.5236 49.5874 63.1099L49.5955 63.1262Z" fill="url(#paint1_linear_1_402)"/>
    </g>
    <defs>
        <linearGradient id="paint0_linear_1_402" x1="26.2699" y1="19.8136" x2="45.0738" y2="68.193" gradientUnits="userSpaceOnUse">
            <stop offset="0.428132" stop-color="#FF7A00"/>
            <stop offset="1" stop-color="currentColor"/>
        </linearGradient>
        <linearGradient id="paint1_linear_1_402" x1="29.2728" y1="18.1956" x2="48.5994" y2="69.5571" gradientUnits="userSpaceOnUse">
            <stop offset="0.428132" stop-color="#0147FF"/>
            <stop offset="1" stop-color="currentColor"/>
        </linearGradient>
        <clipPath id="clip0_1_402">
            <rect width="195" height="147" fill="currentColor"/>
        </clipPath>
    </defs>
</svg>
